<svg height="512" viewBox="0 0 59 58" width="512" xmlns="http://www.w3.org/2000/svg"><g id="Page-1" fill="none" fill-rule="evenodd"><g id="023---Laughing"><circle id="Oval" cx="30" cy="29" fill="#f0c419" r="29"/><path id="Path" d="m46.14 36.74c-5.2465645 1.5104047-10.6803632 2.2712712-16.14 2.26-5.4596368.0112712-10.8934355-.7495953-16.14-2.26l-2.8 6.66c2.4 5.08 7.62 10.6 18.94 10.6s16.54-5.52 18.94-10.6z" fill="#802f34"/><path id="Path" d="m11 13.988c-.3216883.0001848-.6238236-.1543971-.8118868-.4153868-.1880632-.2609898-.23908847-.5965157-.1371132-.9016132.4952013-1.804627 1.7450442-3.30779186 3.429-4.124 1.9091296-.72064666 4.0197308-.69529517 5.911.071.5086542.21539106.746391.80234574.531 1.31099999-.2153911.50865421-.8023457.74639101-1.311.53100001-1.3819704-.54992662-2.9164624-.58012616-4.319-.085-1.1617619.5970255-2.0139764 1.6609298-2.343 2.925-.1346813.4101236-.5173286.6875328-.949.688z" fill="#e57e25"/><path id="Path" d="m49 13.988c-.4306074.0001037-.8129281-.2754572-.949-.684-.3280085-1.265566-1.1803531-2.3310877-2.343-2.929-1.4028977-.49501241-2.9376602-.46481454-4.32.085-.5076394.2105196-1.0900329-.028053-1.3040918-.53421011-.2140588-.5061571.0204416-1.09020222.5250918-1.30778989 1.8913087-.76609884 4.0018357-.79144944 5.911-.071 1.6839558.81620814 2.9337987 2.319373 3.429 4.124.1019753.3050975.05095.6406234-.1371132.9016132-.1880632.2609897-.4901985.4155716-.8118868.4153868z" fill="#e57e25"/><path id="Path" d="m11.8 42.592c-1.2595538 1.7842753-3.38917418 2.7431923-5.56004692 2.5035558-2.17087273-.2396365-4.04006205-1.6399708-4.88010926-3.6560152-.8400472-2.0160443-.51824888-4.3293214.84015618-6.0395406 1.972-2.634 6.544-4.4 9.439-5.307.6141669-.1932828 1.283827-.0790659 1.7992025.3068711.5153755.3859369.813431.9963901.8007975 1.6401289-.053 3.032-.464 7.917-2.439 10.552z" fill="#2fa8cc"/><path id="Path" d="m48.2 42.592c2.0199113 2.5430493 5.6965675 3.0173343 8.2957158 1.070139s3.1772063-5.6089703 1.3042842-8.262139c-1.972-2.634-6.544-4.4-9.44-5.307-.6141669-.1932828-1.283827-.0790659-1.7992025.3068711-.5153755.3859369-.813431.9963901-.8007975 1.6401289.054 3.032.464 7.917 2.44 10.552z" fill="#2fa8cc"/><path id="Path" d="m12 27c-.4205525-.000272-.7959949-.2636395-.9394104-.658983-.1434154-.3953435-.0241535-.8381708.2984104-1.108017.066-.055 6.649-5.427 13.2-1.064.297245.1982824.4661283.5400812.4430332.8966441s-.2346599.6737195-.555.832-.7007882.1336383-.9980332-.0646441c-5.29-3.526-10.583.754-10.806.938-.1808427.1493826-.4084426.2304407-.643.229z" fill="#35495e"/><path id="Path" d="m48 27c-.2333088.0002229-.4593523-.0811386-.639-.23-.223-.184-5.516-4.465-10.806-.938-.297245.1982824-.6776931.2229246-.9980331.0646441-.3203401-.1582805-.5319049-.4754371-.555-.832s.1457881-.6983617.4430331-.8966441c6.546-4.365 13.129 1.009 13.2 1.064.3239439.2701341.4435585.7144839.2989987 1.1107345-.1445597.3962507-.5222068.65919-.9439987.6572655z" fill="#35495e"/><path id="Path" d="m5.586 41.593c-.26519481-.0000566-.51950727-.1054506-.707-.293-1.17114581-1.1714996-1.17114581-3.0705004 0-4.242.39237889-.3789722 1.01608478-.3735524 1.40181858.0121814.38573379.3857338.39115363 1.0094397.01218142 1.4018186-.38971594.3903851-.38971594 1.0226149 0 1.413.28649479.2857714.3725276.7160359.21794938 1.0900013-.15457823.3739655-.51929574.6179127-.92394938.6179987z" fill="#67b9cc"/><path id="Path" d="m54.415 41.593c-.4043959-.0000863-.7689341-.2437275-.923678-.6173454-.1547439-.373618-.0692299-.8036603.216678-1.0896546.3897159-.3903851.3897159-1.0226149 0-1.413-.260128-.2508919-.3646423-.6226186-.2733733-.9723089s.3641179-.6229254.7136787-.7146889c.3495609-.0917634.721435.0122249.9726946.2719978 1.1711458 1.1714996 1.1711458 3.0705004 0 4.242-.1872476.1873046-.4411518.2926784-.706.293z" fill="#67b9cc"/><path id="Path" d="m41.86 51.2c-3.6344572 1.9701914-7.7281412 2.9366598-11.86 2.8-4.1318588.1366598-8.2255428-.8298086-11.86-2.8 1.8613174-2.5035385 4.7442523-4.0440381 7.86-4.2 1.6009333-.1260798 3.1403038.6436055 4 2 .8596962-1.3563945 2.3990667-2.1260798 4-2 3.1157477.1559619 5.9986826 1.6964615 7.86 4.2z" fill="#ff5364"/><path id="Path" d="m44.69 37.14-.35 2.49c-.2281259 1.6120403-1.4105497 2.9249658-2.99 3.32-3.7295635.7906112-7.538693 1.1429977-11.35 1.05-3.811307.0929977-7.6204365-.2593888-11.35-1.05-1.5794503-.3950342-2.7618741-1.7079597-2.99-3.32l-.35-2.49c4.7979485 1.2405952 9.7342605 1.865615 14.69 1.86 4.9557395.005615 9.8920515-.6194048 14.69-1.86z" fill="#ecf0f1"/></g></g></svg>